# xmcd
#
# Track frame offsets: 
#        150
#        13898
#        26045
#        52987
#        67773
#        83488
#        94381
#        108145
#        119962
#        131549
#        143927
#        157782
#        192834
#        214442
#        232665
#        246866
#        260575
#        274322
#
# Disc length: 3899 seconds
#
# Revision: 4
# Processed by: cddbd v1.5.1PL0 Copyright (c) Steve Scherf et al.
# Submitted via: ExactAudioCopy v0.95a5
#
DISCID=fc0f3912
DTITLE=Various Artist - Jazz and Blues Collection Complete CD 7
DYEAR=1900
DGENRE=
TTITLE0=Lightnin' Hopkins - Mojo Hand
TTITLE1=Lightning Slim - Rooster Blues
TTITLE2=Jelly Roll Morton - Meaple Leaf Rag
TTITLE3=Leadbelly - The House Of The Rising Sun (In New Orleans)
TTITLE4=Lightnin' Hopkins - Coffee For Mama
TTITLE5=Lightning Slim - My Babe
TTITLE6=Jelly Roll Morton - King Porter Stomp
TTITLE7=Leadbelly - The Boll Weevil Song
TTITLE8=Lightning Slim - Lightning's Bad Luck
TTITLE9=Leadbelly - John Hardy
TTITLE10=Jelly Roll Morton - Jelly Roll Blues
TTITLE11=Jelly Roll Morton - Wolverine Blues
TTITLE12=Eddy Wilson Blues Band and Friends - Still Got The Blues
TTITLE13=Lightning Slim - Hoodoo Blues
TTITLE14=Eddy Wilson Blues Band and Friends - I'm Burning
TTITLE15=Leadbelly - Where Did You Sleep Last Night?
TTITLE16=Lightning Slim - Good Mornin Heartaches
TTITLE17=Peaches And Diesel - Eddy Wilson Blues Band and Friends
EXTD=
EXTT0=
EXTT1=
EXTT2=
EXTT3=
EXTT4=
EXTT5=
EXTT6=
EXTT7=
EXTT8=
EXTT9=
EXTT10=
EXTT11=
EXTT12=
EXTT13=
EXTT14=
EXTT15=
EXTT16=
EXTT17=
PLAYORDER=
